<?xml version="1.0" encoding="UTF-8" standalone="no"?>
<!-- Uploaded to: SVG Repo, www.svgrepo.com, Generator: SVG Repo Mixer Tools -->

<svg
   width="800px"
   height="800px"
   viewBox="0 0 24 24"
   id="Layer_1"
   data-name="Layer 1"
   version="1.1"
   sodipodi:docname="humidity.svg"
   inkscape:version="1.2.2 (b0a8486541, 2022-12-01)"
   xmlns:inkscape="http://www.inkscape.org/namespaces/inkscape"
   xmlns:sodipodi="http://sodipodi.sourceforge.net/DTD/sodipodi-0.dtd"
   xmlns="http://www.w3.org/2000/svg"
   xmlns:svg="http://www.w3.org/2000/svg">
  <sodipodi:namedview
     id="namedview251"
     pagecolor="#ffffff"
     bordercolor="#cccccc"
     borderopacity="1"
     inkscape:showpageshadow="0"
     inkscape:pageopacity="1"
     inkscape:pagecheckerboard="0"
     inkscape:deskcolor="#d1d1d1"
     showgrid="false"
     inkscape:zoom="0.47375"
     inkscape:cx="737.73087"
     inkscape:cy="219.52507"
     inkscape:window-width="1920"
     inkscape:window-height="935"
     inkscape:window-x="0"
     inkscape:window-y="32"
     inkscape:window-maximized="1"
     inkscape:current-layer="Layer_1" />
  <defs
     id="defs240">
    <style
       id="style238">.cls-1{fill:none;stroke:#020202;stroke-miterlimit:10;stroke-width:1.92px;}</style>
  </defs>
  <path
     class="cls-1"
     d="M.5,3.4c1.92,0,1.92.95,3.83.95S6.25,3.4,8.16,3.4s1.92.95,3.83.95,1.92-.95,3.83-.95,1.92.95,3.84.95,1.92-.95,3.84-.95"
     id="path242"
     style="stroke:#ffffff" />
  <path
     class="cls-1"
     d="M.5,9.15c1.92,0,1.92.95,3.83.95s1.92-.95,3.83-.95,1.92.95,3.83.95,1.92-.95,3.83-.95,1.92.95,3.84.95,1.92-.95,3.84-.95"
     id="path244"
     style="stroke:#ffffff" />
  <path
     class="cls-1"
     d="M.5,14.9c1.92,0,1.92.95,3.83.95s1.92-.95,3.83-.95,1.92.95,3.83.95,1.92-.95,3.83-.95,1.92.95,3.84.95,1.92-.95,3.84-.95"
     id="path246"
     style="stroke:#ffffff" />
  <path
     class="cls-1"
     d="M.5,20.65c1.92,0,1.92,1,3.83,1s1.92-1,3.83-1,1.92,1,3.83,1,1.92-1,3.83-1,1.92,1,3.84,1,1.92-1,3.84-1"
     id="path248"
     style="stroke:#ffffff" />
</svg>
